<?xml version="1.0" encoding="iso-8859-1"?>
<!-- Generator: Adobe Illustrator 19.0.0, SVG Export Plug-In . SVG Version: 6.00 Build 0)  -->
<svg version="1.1" id="Capa_1" xmlns="http://www.w3.org/2000/svg" xmlns:xlink="http://www.w3.org/1999/xlink" x="0px" y="0px"
	 viewBox="0 0 463 463" style="enable-background:new 0 0 463 463;" xml:space="preserve">
<g>
	<path d="M423.5,68H199v-8.5c0-8.547-6.953-15.5-15.5-15.5h-32c-8.547,0-15.5,6.953-15.5,15.5V68h-17v-8.5
		c0-8.547-6.953-15.5-15.5-15.5h-40C54.953,44,48,50.953,48,59.5V68h-8.5C17.72,68,0,85.72,0,107.5v272C0,401.28,17.72,419,39.5,419
		h384c21.78,0,39.5-17.72,39.5-39.5v-272C463,85.72,445.28,68,423.5,68z M151,59.5c0-0.276,0.224-0.5,0.5-0.5h32
		c0.276,0,0.5,0.224,0.5,0.5V68h-33V59.5z M63,59.5c0-0.276,0.224-0.5,0.5-0.5h40c0.276,0,0.5,0.224,0.5,0.5V68H63V59.5z M15,379.5
		v-272C15,93.991,25.991,83,39.5,83H144v321H39.5C25.991,404,15,393.009,15,379.5z M448,379.5c0,13.509-10.991,24.5-24.5,24.5H159
		V83h264.5c13.509,0,24.5,10.991,24.5,24.5V379.5z"/>
	<path d="M303.5,140C237.607,140,184,193.607,184,259.5S237.607,379,303.5,379S423,325.393,423,259.5S369.393,140,303.5,140z
		 M303.5,364C245.878,364,199,317.122,199,259.5S245.878,155,303.5,155S408,201.878,408,259.5S361.122,364,303.5,364z"/>
	<path d="M303.5,172c-48.248,0-87.5,39.252-87.5,87.5s39.252,87.5,87.5,87.5s87.5-39.252,87.5-87.5S351.748,172,303.5,172z
		 M303.5,332c-39.977,0-72.5-32.523-72.5-72.5s32.523-72.5,72.5-72.5s72.5,32.523,72.5,72.5S343.477,332,303.5,332z"/>
	<path d="M303.5,228c-17.369,0-31.5,14.131-31.5,31.5s14.131,31.5,31.5,31.5s31.5-14.131,31.5-31.5S320.869,228,303.5,228z
		 M303.5,276c-9.098,0-16.5-7.402-16.5-16.5s7.402-16.5,16.5-16.5s16.5,7.402,16.5,16.5S312.598,276,303.5,276z"/>
	<path d="M207.5,155c12.958,0,23.5-10.542,23.5-23.5S220.458,108,207.5,108S184,118.542,184,131.5S194.542,155,207.5,155z
		 M207.5,123c4.687,0,8.5,3.813,8.5,8.5s-3.813,8.5-8.5,8.5s-8.5-3.813-8.5-8.5S202.813,123,207.5,123z"/>
	<path d="M79.5,228C62.131,228,48,242.131,48,259.5S62.131,291,79.5,291s31.5-14.131,31.5-31.5S96.869,228,79.5,228z M79.5,276
		c-9.098,0-16.5-7.402-16.5-16.5S70.402,243,79.5,243S96,250.402,96,259.5S88.598,276,79.5,276z"/>
	<path d="M87.5,108h-16C58.542,108,48,118.542,48,131.5v56c0,12.958,10.542,23.5,23.5,23.5h16c12.958,0,23.5-10.542,23.5-23.5v-56
		C111,118.542,100.458,108,87.5,108z M96,187.5c0,4.687-3.813,8.5-8.5,8.5h-16c-4.687,0-8.5-3.813-8.5-8.5v-56
		c0-4.687,3.813-8.5,8.5-8.5h16c4.687,0,8.5,3.813,8.5,8.5V187.5z"/>
</g>
<g>
</g>
<g>
</g>
<g>
</g>
<g>
</g>
<g>
</g>
<g>
</g>
<g>
</g>
<g>
</g>
<g>
</g>
<g>
</g>
<g>
</g>
<g>
</g>
<g>
</g>
<g>
</g>
<g>
</g>
</svg>
