<?xml version='1.0' encoding='iso-8859-1'?>
<svg version="1.1" xmlns="http://www.w3.org/2000/svg" viewBox="0 0 470 470" xmlns:xlink="http://www.w3.org/1999/xlink" enable-background="new 0 0 470 470">
  <g>
    <path d="m377.5,227.5c-42.733,0-77.5-34.767-77.5-77.5 0-82.71-67.29-150-150-150s-150,67.29-150,150c0,4.143 3.358,7.5 7.5,7.5s7.5-3.357 7.5-7.5c0-74.439 60.561-135 135-135s135,60.561 135,135c0,51.005 41.495,92.5 92.5,92.5 42.733,0 77.5,34.767 77.5,77.5v120h-15v-100c0-4.143-3.358-7.5-7.5-7.5h-395c-4.142,0-7.5,3.357-7.5,7.5v100h-15v-260c0-4.143-3.358-7.5-7.5-7.5s-7.5,3.357-7.5,7.5v267.5c0,4.143 3.358,7.5 7.5,7.5h22.5v7.5c0,4.143 3.358,7.5 7.5,7.5h395c4.142,0 7.5-3.357 7.5-7.5v-7.5h22.5c4.142,0 7.5-3.357 7.5-7.5v-127.5c0-51.005-41.495-92.5-92.5-92.5zm-277.857,166.25h-11.429v-46.25h11.429v46.25zm7.5,15c4.142,0 7.5-3.357 7.5-7.5v-53.75h15v53.75c0,4.143 3.358,7.5 7.5,7.5h5.714v46.25h-41.428v-46.25h5.714zm48.928-15h-11.428v-46.25h11.428v46.25zm1.786,15h5.714c4.142,0 7.5-3.357 7.5-7.5v-53.75h15v53.75c0,4.143 3.358,7.5 7.5,7.5h5.714v46.25h-41.429v-46.25zm54.644-15h-11.429v-46.25h11.429v46.25zm1.786,15h5.714c4.142,0 7.5-3.357 7.5-7.5v-53.75h28.214v107.5h-41.429v-46.25zm56.429-61.25h28.214v53.75c0,4.143 3.358,7.5 7.5,7.5h5.715v46.25h-41.429v-107.5zm54.643,46.25h-11.429v-46.25h11.429v46.25zm1.786,15h5.714c4.142,0 7.5-3.357 7.5-7.5v-53.75h15v53.75c0,4.143 3.358,7.5 7.5,7.5h5.714v46.25h-41.428v-46.25zm54.643-15h-11.429v-46.25h11.429v46.25zm-336.786-46.25h28.214v53.75c0,4.143 3.358,7.5 7.5,7.5h5.715v46.25h-41.429v-107.5zm380,107.5h-41.429v-46.25h5.715c4.142,0 7.5-3.357 7.5-7.5v-53.75h28.214v107.5z"/>
    <circle cx="84" cy="223" r="7.5"/>
    <circle cx="54" cy="253" r="7.5"/>
  </g>
</svg>
